<?xml version="1.0" standalone="no"?>
<!DOCTYPE svg PUBLIC "-//W3C//DTD SVG 20010904//EN"
 "http://www.w3.org/TR/2001/REC-SVG-20010904/DTD/svg10.dtd">
<svg version="1.0" xmlns="http://www.w3.org/2000/svg"
 width="600.000000pt" height="600.000000pt" viewBox="0 0 600.000000 600.000000"
 preserveAspectRatio="xMidYMid meet">

<g transform="translate(0.000000,600.000000) scale(0.100000,-0.100000)"
fill="#000000" stroke="none">
<path d="M1287 5529 c-303 -21 -529 -86 -762 -217 -135 -75 -295 -183 -295
-198 0 -35 35 -23 143 47 540 353 879 389 2322 248 299 -29 718 -73 1880 -199
1022 -111 1319 -141 1332 -136 17 7 17 35 1 41 -7 3 -166 21 -353 40 -187 20
-608 65 -935 100 -327 35 -804 87 -1060 115 -1388 149 -1908 186 -2273 159z" fill="#eeeeee"/>
<path d="M3239 5140 c-97 -8 -109 -12 -109 -43 0 -102 -177 -636 -310 -938
-27 -62 -48 -114 -46 -116 2 -2 46 -1 98 3 l96 7 21 81 c55 203 57 208 116
249 l54 37 21 -57 c12 -32 41 -115 64 -186 24 -70 45 -129 48 -132 3 -3 50 -2
106 1 l101 7 -49 97 c-56 112 -150 333 -150 354 0 15 152 115 296 196 l85 48
-72 45 -72 45 -71 -57 c-81 -64 -341 -251 -350 -251 -12 0 133 383 205 537 31
68 35 83 21 82 -9 -1 -56 -5 -103 -9z" fill="#eeeeee"/>
<path d="M768 4821 c-72 -23 -117 -51 -163 -102 -67 -74 -84 -162 -45 -226 22
-37 55 -56 148 -85 126 -38 152 -58 152 -117 0 -60 -74 -110 -164 -111 -60 0
-162 24 -233 56 -29 13 -53 22 -54 21 -15 -44 -44 -189 -39 -192 25 -16 187
-29 275 -24 160 11 278 69 351 175 31 44 39 66 42 114 4 55 2 61 -25 88 -21
21 -47 33 -89 42 -185 38 -232 58 -248 102 -5 14 -6 37 -2 52 10 39 72 103
113 117 75 25 187 -3 261 -65 l30 -26 14 23 c31 47 77 146 70 151 -21 13 -138
26 -231 25 -74 0 -123 -6 -163 -18z" fill="#eeeeee"/>
<path d="M1459 4836 c-2 -2 -44 -6 -92 -9 -49 -3 -91 -7 -93 -9 -2 -3 4 -69
12 -149 10 -89 17 -238 18 -388 l1 -243 59 6 c32 3 75 6 95 6 35 0 40 5 127
123 122 163 296 386 412 525 51 63 92 116 89 118 -9 9 -182 20 -185 12 -15
-36 -220 -329 -308 -437 -102 -127 -108 -133 -117 -110 -6 14 -11 140 -11 291
-1 148 -1 268 -2 268 0 0 -3 -2 -5 -4z" fill="#eeeeee"/>
<path d="M2309 4836 c-2 -2 -44 -6 -92 -9 -49 -3 -91 -7 -93 -9 -2 -3 4 -69
12 -149 10 -89 17 -238 18 -388 l1 -243 59 6 c32 3 75 6 95 6 35 0 40 5 127
123 122 163 296 386 412 525 51 63 92 116 89 118 -9 9 -182 20 -185 12 -15
-36 -220 -329 -308 -437 -102 -127 -108 -133 -117 -110 -6 14 -11 140 -11 291
-1 148 -1 268 -2 268 0 0 -3 -2 -5 -4z" fill="#eeeeee"/>
<path d="M4593 4825 c-192 -43 -385 -237 -438 -441 -55 -213 47 -345 269 -345
87 0 198 28 235 59 11 9 29 40 40 67 11 28 27 67 36 89 l16 39 -48 -35 c-80
-59 -132 -81 -205 -86 -78 -5 -120 8 -147 47 -28 39 -34 84 -21 148 30 146
143 302 245 337 98 33 201 13 234 -46 9 -15 18 -28 21 -28 6 0 81 142 80 152
0 4 -25 16 -56 27 -73 28 -182 35 -261 16z" fill="#eeeeee"/>
<path d="M5245 4834 c-11 -2 -54 -6 -95 -9 l-76 -6 -17 -103 c-29 -169 -94
-358 -197 -568 -27 -56 -48 -104 -46 -105 2 -2 46 -1 99 3 l95 7 12 61 c19 88
74 274 111 372 29 76 38 89 88 129 70 56 144 85 219 85 110 0 154 -57 132
-167 -17 -80 -73 -237 -130 -365 l-48 -108 98 0 97 0 12 60 c7 34 39 146 71
250 33 104 62 212 66 242 12 105 -38 197 -119 219 -76 20 -213 -13 -307 -75
-19 -12 -48 -31 -64 -41 l-28 -19 36 72 c22 43 31 71 24 71 -7 -1 -22 -3 -33
-5z" fill="#eeeeee"/>
<path d="M3811 4248 c-52 -4 -96 -10 -99 -13 -3 -3 -15 -36 -27 -73 -13 -37
-26 -76 -30 -86 -8 -18 -4 -19 86 -12 51 4 94 8 95 9 4 5 73 181 71 182 -1 0
-44 -3 -96 -7z" fill="#eeeeee"/>
<path d="M1063 3355 c-29 -26 -53 -50 -53 -55 0 -5 34 -10 75 -12 46 -2 75 1
74 7 0 6 -10 32 -22 58 l-22 48 -52 -46z" fill="#eeeeee"/>
<path d="M4155 3299 c-43 -27 -105 -59 -137 -71 l-58 -21 -46 -144 c-26 -79
-45 -146 -42 -148 10 -11 81 19 176 74 86 50 102 56 102 40 0 -22 6 -23 49 -8
34 12 35 18 25 105 l-7 52 -41 -12 c-33 -9 -41 -16 -41 -36 0 -19 -13 -30 -75
-62 -41 -21 -78 -38 -81 -38 -12 0 28 114 42 122 8 4 62 29 122 54 l107 46 0
49 c0 27 -3 49 -7 48 -5 -1 -44 -23 -88 -50z" fill="#eeeeee"/>
<path d="M3170 3297 c-15 -50 -50 -107 -101 -162 -42 -46 -42 -46 -165 -20
l-31 7 -22 -87 c-29 -117 -74 -257 -127 -393 -24 -63 -44 -115 -44 -115 0 -1
137 -3 305 -3 245 -2 305 1 305 11 0 18 163 500 188 558 14 32 17 47 9 47 -7
0 -75 -7 -152 -15 -77 -8 -158 -15 -180 -14 l-40 0 50 42 c27 23 69 60 92 82
l43 40 -59 31 -59 30 -12 -39z m174 -265 c3 -5 1 -25 -5 -45 -9 -35 -12 -37
-52 -37 -23 0 -118 -3 -210 -7 l-169 -6 17 38 c8 22 17 40 19 42 4 5 230 20
318 22 42 0 79 -3 82 -7z m-40 -150 c3 -5 0 -26 -5 -49 l-11 -40 -211 -5
c-117 -3 -213 -4 -215 -3 -1 1 4 19 11 41 16 44 -15 38 262 53 83 4 153 9 157
10 4 0 9 -3 12 -7z m-54 -165 c0 -2 -7 -24 -16 -49 -13 -41 -19 -46 -52 -52
-56 -9 -372 -7 -372 3 0 4 5 23 11 42 6 19 12 40 15 47 2 9 53 12 209 12 113
0 205 -1 205 -3z" fill="#eeeeee"/>
<path d="M5578 3298 c-45 -10 -48 -12 -48 -42 0 -26 -19 -109 -46 -198 -4 -14
-16 -18 -55 -18 -27 0 -49 2 -49 5 0 3 11 32 25 65 14 33 25 64 25 70 0 7 -20
10 -52 8 l-53 -3 -7 -50 c-14 -97 -14 -98 -59 -92 -26 3 -39 1 -40 -6 0 -7 -4
-33 -8 -59 -4 -27 -7 -48 -7 -48 1 0 16 4 34 9 17 5 32 8 32 7 0 -3 -67 -182
-84 -226 -4 -10 4 -21 26 -32 41 -22 406 -140 417 -136 15 6 142 178 131 178
-6 0 -27 -7 -48 -16 -65 -27 -185 -29 -289 -4 -51 12 -103 30 -117 41 l-25 20
33 92 33 92 52 3 c28 2 51 0 51 -5 0 -4 -12 -38 -27 -75 -14 -38 -24 -71 -21
-74 3 -3 20 -1 38 3 30 8 36 16 62 90 l30 81 50 6 c28 4 52 6 53 4 11 -10 -40
-97 -65 -112 -17 -9 -30 -21 -30 -26 0 -10 58 -60 70 -60 24 0 53 48 95 160
71 189 75 176 -40 135 -54 -20 -100 -33 -103 -30 -4 4 53 169 83 238 8 19 4
20 -67 5z" fill="#eeeeee"/>
<path d="M1409 3296 c-4 -4 -154 -30 -234 -40 -90 -12 -402 -18 -442 -8 -36 8
-43 7 -43 -5 0 -20 -54 -199 -87 -286 -34 -91 -92 -177 -180 -266 -60 -60 -77
-72 -98 -69 -14 3 -25 2 -25 -3 0 -11 41 -49 54 -50 6 0 19 -2 29 -4 77 -15
161 103 302 425 64 146 75 165 101 173 22 6 422 19 536 17 9 0 37 27 62 60 25
33 42 60 38 60 -5 0 -11 -2 -13 -4z" fill="#eeeeee"/>
<path d="M1850 3240 l0 -48 180 5 c99 3 180 2 180 -2 0 -29 -67 -206 -80 -211
-8 -3 -98 -9 -200 -11 -152 -5 -197 -3 -249 11 -35 9 -66 14 -69 12 -2 -3 -1
-29 2 -59 l7 -54 47 8 c26 4 103 10 172 13 69 4 163 9 208 12 l84 6 -7 -24
c-4 -12 -28 -72 -53 -133 -50 -119 -74 -148 -153 -185 -55 -26 -53 -37 13 -71
39 -20 39 -20 67 0 15 11 41 37 56 57 30 39 100 192 129 282 l18 52 71 0 c111
0 144 13 210 82 31 34 57 65 57 69 0 4 -39 -5 -86 -21 -101 -34 -224 -50 -223
-29 0 8 15 55 32 104 32 89 32 90 67 93 24 2 40 10 49 25 8 12 20 31 27 42 13
20 11 20 -271 21 l-285 2 0 -48z" fill="#eeeeee"/>
<path d="M4663 3270 c-40 -16 -176 -22 -242 -10 -34 6 -64 10 -66 8 -2 -2 -5
-21 -7 -43 -3 -39 -2 -40 31 -45 19 -3 36 -10 38 -16 2 -6 -20 -34 -49 -63
-46 -46 -135 -98 -212 -125 -25 -8 -19 -13 38 -30 44 -14 49 -13 94 11 57 30
97 67 169 156 48 60 58 67 89 67 32 0 35 -2 28 -22 -20 -66 -64 -128 -116
-164 -21 -15 -37 -29 -34 -31 2 -2 31 -12 64 -22 l60 -19 18 47 c9 25 43 103
75 172 33 69 59 128 59 132 0 9 -9 8 -37 -3z" fill="#eeeeee"/>
<path d="M5080 3258 c-1 -2 -3 -21 -6 -42 -3 -21 -16 -73 -29 -115 -25 -83
-22 -81 -102 -67 l-43 8 0 -62 0 -61 45 6 44 7 -30 -90 c-30 -88 -30 -90 -67
-96 -20 -3 -54 -6 -75 -6 l-37 0 6 -57 c4 -32 10 -62 14 -67 12 -13 254 108
300 150 22 20 39 39 36 41 -2 2 -21 -3 -41 -11 -42 -18 -75 -21 -75 -7 0 5 9
38 20 74 21 66 32 77 87 77 15 0 30 15 52 49 l30 49 -55 -5 c-35 -4 -54 -2
-54 5 0 8 39 115 75 205 6 15 1 17 -44 17 -28 0 -51 -1 -51 -2z" fill="#eeeeee"/>
<path d="M1887 3105 c-9 -33 -19 -69 -23 -79 -6 -16 -4 -18 10 -13 10 4 57 7
105 7 l88 0 26 68 c15 37 27 70 27 72 0 3 -49 5 -109 5 l-109 0 -15 -60z m154
-17 c-7 -19 -17 -24 -58 -26 -49 -3 -50 -2 -46 23 5 23 9 25 59 25 51 0 53 -1
45 -22z" fill="#eeeeee"/>
<path d="M1024 3134 c-7 -26 -7 -27 -80 -21 -78 6 -80 5 -68 -40 5 -19 14 -22
65 -25 42 -2 56 -6 51 -15 -5 -8 -46 -13 -126 -14 l-118 -1 7 -37 c4 -20 8
-37 9 -39 2 -1 32 4 67 13 35 8 81 15 102 15 35 0 38 -2 32 -22 -11 -35 -15
-37 -108 -44 l-88 -7 7 -31 c3 -17 7 -32 8 -32 0 -1 31 3 69 9 37 6 69 8 72 5
8 -8 -74 -224 -99 -261 -14 -21 -37 -37 -66 -47 -25 -8 -47 -16 -50 -18 -17
-12 115 -72 159 -72 18 0 31 36 77 208 24 92 47 175 50 185 5 16 17 18 96 16
l91 -2 19 52 19 51 63 0 c115 0 121 4 190 111 l16 26 -59 -30 c-65 -32 -181
-52 -181 -31 0 6 7 31 15 54 15 42 15 42 -8 37 -12 -4 -53 -9 -91 -13 l-69 -7
7 26 c6 26 5 27 -34 27 -34 0 -40 -3 -46 -26z m139 -94 c-4 -17 -14 -20 -54
-20 -27 0 -49 2 -49 4 0 26 16 36 60 36 43 0 48 -2 43 -20z m-32 -93 c-7 -18
-18 -23 -55 -25 -39 -3 -46 0 -46 15 0 30 16 38 64 35 41 -4 44 -6 37 -25z" fill="#eeeeee"/>
<path d="M3887 2894 c-4 -4 -7 -15 -7 -24 0 -9 -20 -88 -45 -175 -24 -88 -43
-160 -42 -161 1 -1 67 2 147 7 123 8 319 2 433 -14 14 -2 28 30 77 173 33 96
60 178 60 181 0 3 -120 5 -267 5 -148 -1 -286 3 -308 7 -22 4 -44 5 -48 1z
m243 -81 c0 -5 -3 -18 -6 -30 -6 -22 -11 -23 -100 -23 -52 0 -94 3 -94 8 0 4
3 17 6 30 6 21 11 22 100 22 52 0 94 -3 94 -7z m280 -4 c0 -6 -5 -19 -10 -30
-9 -16 -21 -19 -78 -18 -37 1 -79 4 -93 8 -23 5 -25 9 -18 29 8 21 14 22 104
22 60 0 95 -4 95 -11z m-322 -141 c-16 -50 -33 -58 -121 -58 -77 0 -78 0 -71
23 22 71 16 67 113 67 l90 0 -11 -32z m282 14 c0 -10 -7 -28 -16 -40 -14 -20
-23 -22 -110 -22 -52 0 -94 2 -94 4 0 2 7 20 15 40 l15 36 95 0 c84 0 95 -2
95 -18z" fill="#eeeeee"/>
<path d="M2010 2868 c-14 -5 -71 -8 -128 -6 l-102 4 -11 -41 c-6 -22 -18 -67
-28 -100 l-18 -60 120 1 119 2 39 98 c21 55 38 102 36 105 -1 4 -13 2 -27 -3z
m-71 -100 c-5 -18 -9 -34 -9 -35 0 -2 -27 -3 -60 -3 l-60 0 6 28 c9 36 20 42
81 42 l52 0 -10 -32z" fill="#eeeeee"/>
<path d="M1113 2806 c-40 -22 -73 -44 -73 -48 0 -8 119 -21 146 -16 12 2 20
13 22 32 4 33 -5 76 -16 75 -4 -1 -40 -20 -79 -43z" fill="#eeeeee"/>
<path d="M690 2813 c0 -2 14 -28 31 -58 l31 -55 37 30 c60 47 67 58 39 64 -57
11 -138 22 -138 19z" fill="#eeeeee"/>
<path d="M828 2705 c-6 -7 -103 -40 -139 -49 -19 -4 -37 1 -64 20 l-38 25 6
-44 c9 -65 24 -97 46 -97 24 0 126 68 170 114 19 20 33 36 30 36 -3 0 -8 -2
-11 -5z" fill="#eeeeee"/>
<path d="M1006 2677 c15 -49 47 -109 60 -114 12 -4 144 90 144 104 0 3 -15 2
-33 -1 -19 -4 -63 1 -105 12 -71 18 -72 18 -66 -1z" fill="#eeeeee"/>
<path d="M5760 2269 c-472 -164 -903 -217 -2020 -250 -413 -12 -2466 -14
-3047 -3 -356 6 -383 6 -389 -10 -4 -10 -2 -22 3 -27 15 -15 1901 -27 2778
-18 1588 16 2140 70 2695 261 104 36 125 46 125 63 0 11 -7 21 -15 22 -8 1
-67 -16 -130 -38z" fill="#eeeeee"/>
<path d="M1060 1663 c-222 -15 -435 -53 -558 -99 -73 -27 -94 -46 -75 -65 7
-7 45 1 114 25 202 69 448 96 868 96 295 0 463 -7 1201 -50 1058 -62 1631 -78
2177 -61 448 14 1041 56 1075 77 11 7 10 32 -2 39 -5 3 -74 -1 -152 -10 -770
-82 -1631 -82 -3018 0 -750 44 -1011 55 -1300 53 -157 -1 -305 -3 -330 -5z" fill="#eeeeee"/>
<path d="M383 894 c-3 -8 -1 -20 4 -25 5 -5 1060 -8 2749 -7 2731 3 2739 3
2739 23 0 20 -8 20 -2743 23 -2484 2 -2743 1 -2749 -14z" fill="#eeeeee"/>
</g>
</svg>
